<mxfile host="app.diagrams.net" modified="2023-04-04T13:26:40.299Z" agent="Mozilla/5.0 (Macintosh; Intel Mac OS X 10_15_7) AppleWebKit/605.1.15 (KHTML, like Gecko) Version/16.3 Safari/605.1.15" etag="sdrt_SELkCgzKKRNx9HZ" version="21.1.4" type="device">
  <diagram name="Page-1" id="TQ82Zk0Q4UlF9jKKjoYi">
    <mxGraphModel dx="708" dy="461" grid="1" gridSize="10" guides="1" tooltips="1" connect="1" arrows="1" fold="1" page="1" pageScale="1" pageWidth="1169" pageHeight="827" math="0" shadow="0">
      <root>
        <mxCell id="0" />
        <mxCell id="1" parent="0" />
        <mxCell id="zvbYDGwUcTA-Dl48deIL-4" style="edgeStyle=orthogonalEdgeStyle;rounded=0;orthogonalLoop=1;jettySize=auto;html=1;" edge="1" parent="1" source="zvbYDGwUcTA-Dl48deIL-1" target="zvbYDGwUcTA-Dl48deIL-2">
          <mxGeometry relative="1" as="geometry" />
        </mxCell>
        <mxCell id="zvbYDGwUcTA-Dl48deIL-1" value="&lt;font size=&quot;1&quot;&gt;&lt;b style=&quot;font-size: 12px;&quot;&gt;LSTM&lt;/b&gt;&lt;/font&gt;" style="rounded=0;whiteSpace=wrap;html=1;fillColor=#dae8fc;strokeColor=#6c8ebf;" vertex="1" parent="1">
          <mxGeometry x="250" y="160" width="80" height="120" as="geometry" />
        </mxCell>
        <mxCell id="zvbYDGwUcTA-Dl48deIL-5" style="edgeStyle=orthogonalEdgeStyle;rounded=0;orthogonalLoop=1;jettySize=auto;html=1;entryX=0;entryY=0.5;entryDx=0;entryDy=0;entryPerimeter=0;" edge="1" parent="1" source="zvbYDGwUcTA-Dl48deIL-2" target="zvbYDGwUcTA-Dl48deIL-3">
          <mxGeometry relative="1" as="geometry" />
        </mxCell>
        <mxCell id="zvbYDGwUcTA-Dl48deIL-2" value="&lt;b style=&quot;&quot;&gt;&lt;span style=&quot;white-space: pre;&quot;&gt;&amp;nbsp; &lt;/span&gt;Dense&lt;/b&gt;" style="triangle;whiteSpace=wrap;html=1;align=left;fillColor=#dae8fc;strokeColor=#6c8ebf;" vertex="1" parent="1">
          <mxGeometry x="400" y="160" width="60" height="120" as="geometry" />
        </mxCell>
        <mxCell id="zvbYDGwUcTA-Dl48deIL-3" value="&lt;b&gt;&lt;font style=&quot;font-size: 12px;&quot;&gt;Predictions&lt;/font&gt;&lt;/b&gt;" style="shape=note;whiteSpace=wrap;html=1;backgroundOutline=1;darkOpacity=0.05;fillColor=#f8cecc;strokeColor=#b85450;opacity=75;" vertex="1" parent="1">
          <mxGeometry x="510" y="175" width="70" height="90" as="geometry" />
        </mxCell>
        <mxCell id="zvbYDGwUcTA-Dl48deIL-8" style="edgeStyle=orthogonalEdgeStyle;rounded=0;orthogonalLoop=1;jettySize=auto;html=1;entryX=0;entryY=0.5;entryDx=0;entryDy=0;exitX=0;exitY=1;exitDx=0;exitDy=0;" edge="1" parent="1" source="zvbYDGwUcTA-Dl48deIL-9" target="zvbYDGwUcTA-Dl48deIL-1">
          <mxGeometry relative="1" as="geometry">
            <mxPoint x="150" y="220" as="sourcePoint" />
            <Array as="points">
              <mxPoint x="190" y="220" />
              <mxPoint x="190" y="220" />
            </Array>
          </mxGeometry>
        </mxCell>
        <mxCell id="zvbYDGwUcTA-Dl48deIL-9" value="Batch size: &lt;b&gt;64&lt;/b&gt;" style="text;html=1;strokeColor=none;fillColor=none;align=center;verticalAlign=middle;whiteSpace=wrap;rounded=0;" vertex="1" parent="1">
          <mxGeometry x="140" y="190" width="90" height="30" as="geometry" />
        </mxCell>
        <mxCell id="zvbYDGwUcTA-Dl48deIL-10" value="Units: &lt;b&gt;100&lt;/b&gt;" style="text;html=1;strokeColor=none;fillColor=none;align=center;verticalAlign=middle;whiteSpace=wrap;rounded=0;" vertex="1" parent="1">
          <mxGeometry x="330" y="190" width="70" height="30" as="geometry" />
        </mxCell>
        <mxCell id="zvbYDGwUcTA-Dl48deIL-11" value="&lt;b&gt;&lt;font style=&quot;font-size: 12px;&quot;&gt;Input&lt;/font&gt;&lt;/b&gt;" style="shape=note;whiteSpace=wrap;html=1;backgroundOutline=1;darkOpacity=0.05;fillColor=#fff2cc;strokeColor=#d6b656;opacity=75;" vertex="1" parent="1">
          <mxGeometry x="70" y="170" width="70" height="95" as="geometry" />
        </mxCell>
        <mxCell id="zvbYDGwUcTA-Dl48deIL-12" value="" style="swimlane;startSize=0;swimlaneFillColor=#CCE5FF;fillOpacity=30;" vertex="1" parent="1">
          <mxGeometry x="230" y="130" width="250" height="170" as="geometry" />
        </mxCell>
        <mxCell id="zvbYDGwUcTA-Dl48deIL-13" value="Model" style="text;html=1;strokeColor=none;fillColor=none;align=center;verticalAlign=middle;whiteSpace=wrap;rounded=0;fontStyle=1;fontSize=14;" vertex="1" parent="zvbYDGwUcTA-Dl48deIL-12">
          <mxGeometry x="190" width="60" height="30" as="geometry" />
        </mxCell>
      </root>
    </mxGraphModel>
  </diagram>
</mxfile>
